# xmcd
#
# Track frame offsets: 
#        150
#        16244
#        35531
#        47017
#        61513
#        79609
#        91263
#        105244
#        121892
#        132593
#        145071
#
# Disc length: 2137 seconds
#
# Revision: 0
# Processed by: cddbd v1.5.2PL0 Copyright (c) Steve Scherf et al.
# Submitted via: ExactAudioCopy v0.99pb4
#
DISCID=7f08570b
DTITLE=Amy Winehouse - Back to Black
DYEAR=2006
DGENRE=R&B
TTITLE0=Rehab
TTITLE1=You Know I'm No Good
TTITLE2=Me and Mr. Jones
TTITLE3=Just Friends
TTITLE4=Back to Black
TTITLE5=Love is a Losing Game
TTITLE6=Tears Dry On Their Own
TTITLE7=Wake Up Alone
TTITLE8=Some Unholy War
TTITLE9=He Can Only Hold Her
TTITLE10=You Know I'm No Good
EXTD=
EXTT0=
EXTT1=
EXTT2=
EXTT3=
EXTT4=
EXTT5=
EXTT6=
EXTT7=
EXTT8=
EXTT9=
EXTT10=
PLAYORDER=
